<?xml version="1.0" standalone="no"?>
<svg xmlns:xlink="http://www.w3.org/1999/xlink" fill="#000000" width="128" height="128" viewBox="0 0 24 24" xmlns="http://www.w3.org/2000/svg">

<g data-name="Layer 2" fill="#fff" style="fill: rgb(255, 255, 255);">

<g data-name="close" fill="#fff" style="fill: rgb(255, 255, 255);">



<path d="M13.41 12l4.3-4.29a1 1 0 1 0-1.42-1.42L12 10.59l-4.29-4.3a1 1 0 0 0-1.42 1.42l4.3 4.29-4.3 4.29a1 1 0 0 0 0 1.42 1 1 0 0 0 1.42 0l4.29-4.3 4.29 4.3a1 1 0 0 0 1.42 0 1 1 0 0 0 0-1.42z" fill="#fff" style="fill: rgb(255, 255, 255);"/>

</g>

</g>

</svg>